<?xml version="1.0" standalone="no"?>
<!DOCTYPE svg PUBLIC "-//W3C//DTD SVG 20010904//EN"
 "http://www.w3.org/TR/2001/REC-SVG-20010904/DTD/svg10.dtd">
<svg version="1.0" xmlns="http://www.w3.org/2000/svg"
 width="3473.000000pt" height="3473.000000pt" viewBox="0 0 3473.000000 3473.000000"
 preserveAspectRatio="xMidYMid meet">
<metadata>
Created by potrace 1.14, written by Peter Selinger 2001-2017
</metadata>
<g transform="translate(0.000000,3473.000000) scale(0.100000,-0.100000)"
fill="#000000" stroke="none">
<path d="M17137 29404 c-1 -1 -101 -4 -222 -8 -121 -4 -240 -8 -265 -10 -25
-3 -88 -7 -140 -11 -235 -16 -333 -25 -585 -55 -109 -13 -122 -14 -305 -40
-124 -18 -204 -31 -400 -65 -619 -108 -1332 -301 -1990 -538 -69 -25 -384
-138 -700 -252 -316 -114 -606 -219 -645 -233 -38 -13 -71 -26 -73 -27 -2 -2
71 -119 161 -261 263 -416 635 -1005 753 -1192 222 -351 627 -992 1209 -1912
329 -520 619 -979 645 -1020 77 -123 549 -870 594 -940 67 -104 140 -218 157
-248 18 -30 1072 -1698 1124 -1777 17 -27 152 -241 300 -475 147 -234 282
-447 300 -475 30 -46 690 -1090 848 -1340 117 -186 130 -206 137 -198 4 5 75
116 159 248 84 132 252 395 373 585 271 424 569 891 843 1320 114 179 225 352
246 385 64 99 283 443 350 550 35 55 65 102 69 105 3 3 25 37 48 75 37 61 274
433 302 475 6 8 29 44 52 80 22 36 69 108 102 160 34 52 143 222 241 377 99
155 201 315 227 355 26 40 62 98 81 128 19 30 116 183 217 340 100 157 218
341 262 410 44 69 106 166 137 215 169 264 482 754 751 1175 322 506 470 737
535 837 22 34 62 97 89 140 27 43 69 107 92 143 65 102 658 1030 688 1078 15
24 26 45 24 47 -6 6 -1322 653 -1448 712 -1008 472 -2043 794 -3145 977 -144
24 -385 59 -490 71 -27 3 -66 8 -85 10 -34 5 -59 7 -185 20 -33 3 -78 8 -100
10 -57 6 -157 14 -250 20 -44 3 -111 7 -150 10 -199 13 -926 28 -938 19z m598
-2528 c110 -4 218 -9 240 -11 22 -2 84 -6 138 -10 54 -3 108 -8 120 -10 12 -2
58 -6 101 -10 43 -4 86 -8 95 -10 9 -1 45 -6 81 -10 94 -10 86 -9 300 -40 255
-38 599 -107 885 -180 178 -44 523 -142 533 -150 2 -2 -201 -325 -353 -560
-18 -27 -84 -131 -147 -230 -285 -447 -443 -694 -473 -740 -32 -50 -70 -110
-645 -1010 -360 -565 -446 -699 -515 -807 l-51 -78 -169 267 c-93 148 -239
378 -324 513 -85 135 -191 302 -235 373 -45 70 -175 276 -291 459 -115 182
-223 353 -240 380 -33 54 -755 1196 -820 1298 -169 263 -266 422 -262 426 4 5
192 37 287 49 30 4 62 8 70 10 28 5 105 14 165 21 33 3 67 8 75 9 8 2 51 6 95
10 44 4 89 8 100 10 11 1 70 6 130 10 61 4 121 9 135 11 14 1 111 6 215 9 105
4 191 8 192 9 4 3 393 -2 568 -8z"/>
<path d="M10640 27438 c-47 -38 -105 -87 -130 -108 -25 -21 -90 -76 -145 -122
-831 -696 -891 -746 -955 -804 -426 -384 -693 -649 -1015 -1008 -120 -134
-293 -335 -332 -386 -6 -8 -36 -44 -65 -80 -300 -360 -708 -947 -982 -1410
-123 -207 -132 -224 -188 -325 -606 -1100 -1030 -2256 -1268 -3456 -36 -181
-88 -480 -105 -599 -3 -25 -8 -56 -10 -70 -5 -27 -7 -44 -29 -225 -17 -135
-23 -193 -31 -280 -3 -33 -8 -76 -10 -95 -2 -19 -7 -73 -10 -120 -3 -47 -8
-105 -10 -130 -2 -25 -7 -94 -10 -155 -3 -60 -8 -153 -11 -205 -6 -131 -7
-908 0 -1000 3 -41 8 -124 11 -185 3 -60 8 -137 10 -170 11 -141 36 -413 41
-445 2 -19 9 -75 14 -125 5 -49 14 -121 20 -160 5 -38 14 -102 20 -141 8 -62
18 -124 35 -229 3 -16 7 -46 10 -65 3 -19 13 -73 21 -120 185 -1016 486 -1967
919 -2910 226 -491 565 -1098 864 -1549 64 -96 121 -181 126 -190 34 -56 398
-556 415 -571 3 -3 28 -34 55 -70 28 -36 57 -74 66 -85 10 -11 66 -78 125
-150 126 -153 250 -296 324 -375 19 -21 71 -77 115 -126 82 -92 490 -503 630
-634 112 -106 394 -355 494 -436 13 -10 28 -24 35 -30 46 -42 396 -315 551
-429 579 -424 1164 -781 1770 -1080 272 -134 374 -182 515 -242 58 -24 119
-51 135 -58 314 -141 1097 -420 1345 -480 8 -2 71 -20 140 -40 250 -73 762
-192 964 -225 33 -5 72 -12 86 -15 69 -15 304 -54 356 -60 32 -4 68 -9 79 -11
22 -5 217 -32 275 -39 173 -20 205 -23 290 -30 41 -3 91 -7 110 -10 56 -7 147
-14 260 -21 58 -3 159 -9 225 -14 118 -7 1176 -5 1245 4 19 2 87 7 150 10 63
4 129 9 145 11 17 2 71 7 120 11 50 3 97 7 105 9 8 2 44 6 80 9 36 4 81 9 100
11 19 3 60 7 90 10 58 5 162 19 268 36 34 5 81 12 105 15 23 3 80 12 127 20
47 8 112 19 145 25 111 18 120 20 165 30 25 6 59 13 75 15 72 11 338 70 585
130 568 140 1202 352 1775 594 313 133 780 357 1030 495 237 131 460 262 665
390 616 385 1254 875 1810 1390 94 87 524 518 600 601 149 162 231 254 305
339 42 50 89 103 103 119 173 199 517 653 738 976 968 1412 1622 3033 1919
4755 16 96 17 102 49 325 23 165 28 202 41 318 3 26 8 61 10 77 2 17 6 66 10
110 3 44 8 96 10 115 12 94 31 382 40 620 7 160 7 772 0 905 -3 61 -7 164 -10
230 -3 66 -8 143 -10 170 -24 290 -30 362 -50 540 -16 143 -19 165 -35 270 -5
33 -12 80 -15 105 -27 216 -137 784 -211 1080 -25 102 -47 195 -50 206 -2 12
-33 124 -69 250 -252 882 -610 1747 -1049 2535 -106 191 -275 476 -351 594
-176 273 -375 565 -476 697 -24 32 -60 79 -79 105 -106 143 -463 589 -500 623
-3 3 -36 41 -75 85 -136 156 -238 266 -422 455 -288 296 -369 379 -727 744
-204 208 -374 383 -378 390 -5 7 -10 7 -17 1 -5 -6 -114 -170 -243 -365 -129
-195 -306 -463 -393 -595 -169 -256 -413 -625 -660 -1000 -83 -126 -250 -378
-370 -560 -120 -181 -273 -413 -340 -515 -67 -102 -224 -340 -350 -530 -125
-190 -309 -469 -409 -620 -99 -151 -281 -425 -403 -610 -121 -184 -295 -447
-386 -585 -156 -235 -540 -817 -889 -1345 -85 -129 -247 -374 -360 -545 -112
-170 -252 -382 -310 -470 -58 -88 -203 -308 -323 -490 -391 -592 -1041 -1579
-1314 -1995 -74 -113 -137 -209 -141 -213 -4 -4 -76 98 -161 228 -85 130 -203
311 -264 403 -60 93 -148 226 -195 298 -46 71 -143 219 -215 329 -72 110 -173
265 -225 345 -52 79 -153 233 -225 342 -71 109 -173 264 -226 345 -54 82 -166
254 -251 383 -85 129 -194 296 -243 370 -49 74 -147 225 -220 335 -72 110
-153 234 -180 275 -27 41 -112 172 -190 290 -78 118 -163 249 -190 290 -102
156 -305 466 -325 495 -11 17 -80 121 -153 232 -148 227 -276 423 -489 748
-80 121 -202 308 -272 415 -138 210 -227 346 -539 822 -111 169 -281 427 -377
574 -96 147 -238 364 -315 481 -77 117 -232 354 -345 526 -112 171 -283 431
-378 577 -96 146 -211 321 -256 390 -44 69 -139 214 -211 322 -71 109 -173
264 -227 345 -53 82 -174 267 -270 413 -96 146 -205 313 -244 372 l-70 106
-84 -70z m-397 -3791 c2 -6 89 -140 192 -297 260 -396 586 -894 757 -1155 51
-77 166 -252 256 -390 91 -137 190 -288 220 -335 30 -47 117 -179 193 -295 76
-115 189 -289 253 -385 133 -204 282 -430 502 -765 86 -132 185 -284 220 -337
35 -53 119 -181 187 -285 68 -103 162 -246 208 -318 47 -71 94 -143 104 -159
11 -16 25 -36 30 -44 6 -9 62 -95 125 -191 64 -97 156 -238 205 -314 50 -75
144 -219 210 -320 66 -100 170 -259 231 -352 61 -94 178 -271 259 -395 258
-393 576 -877 698 -1065 51 -78 171 -261 267 -408 96 -148 242 -370 323 -495
276 -422 338 -516 473 -721 74 -113 134 -206 134 -207 0 -1 49 -75 108 -165
59 -90 148 -226 197 -302 50 -75 140 -213 200 -305 266 -406 390 -596 469
-717 98 -151 356 -546 561 -859 l143 -218 34 53 c19 30 115 176 213 324 98
149 224 340 280 425 56 85 146 222 201 305 54 82 101 154 104 160 3 5 81 125
174 265 93 140 319 482 501 760 183 278 402 611 487 740 85 129 194 296 243
370 49 74 167 254 263 400 97 146 209 317 250 380 77 118 533 809 887 1345
109 165 271 410 360 545 89 135 254 385 367 555 112 171 262 398 333 505 158
239 426 646 690 1045 109 165 267 404 350 530 83 127 232 352 330 500 98 149
247 374 330 500 83 127 263 399 400 605 136 206 286 433 332 503 l84 129 18
-24 c10 -12 48 -68 84 -123 37 -55 70 -104 75 -110 4 -5 57 -91 118 -190 150
-244 285 -487 413 -745 92 -185 137 -282 231 -495 29 -64 118 -290 167 -420
258 -690 432 -1407 527 -2175 8 -62 25 -233 31 -305 3 -33 7 -85 10 -115 2
-30 7 -104 10 -165 3 -60 8 -148 11 -195 6 -103 6 -641 0 -725 -3 -33 -7 -123
-11 -200 -3 -77 -8 -153 -10 -170 -2 -16 -7 -66 -10 -110 -3 -44 -7 -91 -9
-105 -3 -14 -7 -54 -10 -90 -3 -36 -8 -78 -10 -95 -3 -16 -7 -52 -10 -80 -4
-27 -8 -61 -10 -75 -2 -14 -7 -43 -10 -65 -14 -99 -18 -127 -37 -240 -208
-1256 -699 -2516 -1397 -3585 -84 -129 -257 -380 -289 -420 -6 -8 -55 -73
-109 -145 -82 -109 -246 -318 -264 -335 -3 -3 -43 -50 -90 -105 -46 -55 -103
-120 -125 -145 -23 -25 -94 -101 -157 -170 -263 -285 -665 -660 -983 -914 -60
-49 -119 -96 -130 -105 -11 -9 -81 -61 -155 -117 -639 -477 -1352 -882 -2055
-1168 -49 -20 -99 -41 -110 -46 -84 -38 -724 -262 -789 -275 -10 -2 -48 -13
-85 -25 -71 -22 -374 -101 -480 -126 -244 -56 -691 -135 -956 -169 -71 -9
-141 -18 -155 -20 -23 -4 -52 -6 -230 -20 -36 -3 -85 -8 -110 -10 -44 -4 -160
-11 -365 -21 -212 -10 -783 -4 -923 10 -22 3 -86 7 -143 11 -57 4 -115 8 -128
10 -12 2 -60 7 -105 10 -44 3 -115 11 -156 16 -41 6 -88 12 -105 14 -55 7
-122 16 -146 20 -13 2 -60 9 -105 15 -44 6 -91 13 -105 15 -13 3 -62 12 -109
20 -47 8 -96 17 -110 19 -14 3 -72 15 -130 27 -58 11 -168 36 -246 54 -78 19
-152 36 -165 38 -77 14 -489 137 -729 217 -251 84 -645 238 -815 318 -22 10
-78 36 -125 58 -145 66 -492 240 -573 288 -43 25 -79 46 -81 46 -7 0 -277 160
-400 237 -685 428 -1408 1026 -1922 1589 -45 49 -96 105 -113 124 -18 19 -104
120 -192 223 -403 473 -790 1037 -1086 1582 -58 107 -270 531 -312 625 -199
443 -357 877 -485 1325 -33 116 -109 414 -125 485 -42 198 -53 252 -80 400
-30 164 -64 385 -76 490 -3 30 -8 62 -10 70 -2 8 -7 53 -10 100 -4 47 -8 87
-10 90 -2 3 -6 46 -10 95 -3 50 -8 108 -10 130 -3 37 -9 124 -21 325 -5 91 -5
741 1 825 2 33 6 114 10 180 4 66 8 134 9 150 2 17 6 66 10 110 8 91 10 112
31 290 22 188 24 204 35 270 5 33 11 78 15 100 39 269 140 727 231 1055 63
226 201 650 240 737 8 17 14 36 14 42 0 6 7 27 16 48 25 56 31 71 63 153 65
169 210 489 321 710 261 521 540 973 901 1456 70 94 133 177 141 185 7 8 51
61 98 119 110 137 233 280 241 280 4 0 9 -6 12 -13z"/>
<path d="M15684 13049 c-191 -288 -456 -688 -589 -889 -133 -201 -407 -614
-608 -917 -202 -304 -367 -555 -367 -558 0 -4 42 -70 93 -148 52 -78 160 -243
242 -367 81 -124 164 -249 184 -278 20 -28 41 -60 46 -70 6 -10 40 -63 76
-117 36 -55 124 -188 194 -295 71 -107 201 -305 290 -440 329 -497 360 -545
363 -557 2 -7 7 -13 12 -13 10 0 60 65 60 78 0 6 4 12 8 14 4 2 44 57 87 123
44 66 82 122 85 125 3 3 41 59 85 125 139 207 310 460 318 470 4 6 60 89 125
185 155 230 474 704 577 855 91 134 288 425 478 707 l127 188 -503 750 c-276
413 -507 758 -512 768 -6 9 -78 117 -160 240 -83 123 -159 238 -170 256 -21
33 -185 278 -191 285 -1 2 -159 -232 -350 -520z"/>
</g>
</svg>
